<?xml version="1.0" encoding="UTF-8" standalone="no"?>
<!DOCTYPE svg PUBLIC "-//W3C//DTD SVG 1.1//EN" "http://www.w3.org/Graphics/SVG/1.1/DTD/svg11.dtd">
<!-- Created with Vectornator (http://vectornator.io/) -->
<svg height="100%" stroke-miterlimit="10" style="fill-rule:nonzero;clip-rule:evenodd;stroke-linecap:round;stroke-linejoin:round;" version="1.1" viewBox="0 0 600 600" width="100%" xml:space="preserve" xmlns="http://www.w3.org/2000/svg" xmlns:vectornator="http://vectornator.io" xmlns:xlink="http://www.w3.org/1999/xlink">
<defs/>
<clipPath id="ArtboardFrame">
<rect height="600" width="600" x="0" y="0"/>
</clipPath>
<g clip-path="url(#ArtboardFrame)" id="Layer-2" opacity="0.05" vectornator:layerName="Layer 2" visibility="hidden">
<path d="M2.67586 300.594C2.67586 136.402 135.78 3.29759 299.972 3.29759C464.165 3.29759 597.269 136.402 597.269 300.594C597.269 464.786 464.165 597.891 299.972 597.891C135.78 597.891 2.67586 464.786 2.67586 300.594Z" fill="#00b553" fill-rule="nonzero" opacity="1" stroke="#00b553" stroke-linecap="butt" stroke-linejoin="round" stroke-opacity="0.8" stroke-width="4.52723"/>
</g>
<g id="Layer-1" vectornator:layerName="Layer 1">
<path d="M114.535 102.449C115.071 102.663 115.825 102.61 116.143 103.092C118.997 107.422 121.715 111.878 123.861 116.599C124.06 117.036 123.004 117.028 122.575 117.242" fill="none" opacity="1" stroke="#00b553" stroke-linecap="round" stroke-linejoin="round" stroke-opacity="0.8" stroke-width="4.52723"/>
<path d="M113.57 99.8763C113.57 96.1474 114.825 92.2122 117.108 89.2637C117.971 88.1488 119.882 88.7143 121.288 88.6205C122.092 88.5669 122.848 90.4438 122.896 90.55C124.574 94.2407 123.859 98.6574 121.932 102.127C121.867 102.243 119.647 104.887 119.68 105.022C119.872 105.789 124.968 106.847 126.756 107.273C127.596 107.473 128.478 107.44 129.328 107.595C131.158 107.927 134.074 109.241 136.082 108.238" fill="none" opacity="1" stroke="#00b553" stroke-linecap="round" stroke-linejoin="round" stroke-opacity="0.8" stroke-width="4.52723"/>
<path d="M144.443 101.484C144.856 100.247 141.835 101.212 140.584 100.841C136.771 99.7113 133.164 95.6525 133.509 91.5148C134.248 82.6531 145.609 91.4478 133.831 95.374" fill="none" opacity="1" stroke="#00b553" stroke-linecap="round" stroke-linejoin="round" stroke-opacity="0.8" stroke-width="4.52723"/>
<path d="M146.694 81.2238C146.694 85.1901 145.547 89.3262 146.694 93.1228C147.304 95.1388 151.091 95.9549 152.805 94.7308C155.575 92.7517 151.646 86.7997 150.554 85.0829C150.294 84.6752 148.8 81.867 147.981 81.867C147.022 81.867 148.622 83.7303 149.267 84.4397C151.389 86.7734 153.311 88.5747 156.342 89.5852" fill="none" opacity="1" stroke="#00b553" stroke-linecap="round" stroke-linejoin="round" stroke-opacity="0.8" stroke-width="4.52723"/>
<path d="M165.99 81.2238C166.205 81.0094 166.693 80.8779 166.633 80.5806C166.128 78.0534 166.592 74.5099 164.382 73.1839C162.9 72.2946 162.4 76.0618 161.809 77.6862C160.011 82.632 166.51 96.8953 172.1 89.9068" fill="none" opacity="1" stroke="#00b553" stroke-linecap="round" stroke-linejoin="round" stroke-opacity="0.8" stroke-width="4.52723"/>
<path d="M163.417 50.9939C163.31 50.5651 162.951 49.2898 163.096 49.7075C165.169 55.698 166.592 61.9416 169.206 67.7168C171.23 72.1889 174.289 76.1175 176.924 80.259C177.911 81.8097 178.157 81.8267 179.497 82.8318" fill="none" opacity="1" stroke="#00b553" stroke-linecap="round" stroke-linejoin="round" stroke-opacity="0.8" stroke-width="4.52723"/>
<path d="M176.924 64.5008C176.817 64.1793 176.924 63.4289 176.603 63.5361C172.73 64.8269 169.042 66.6255 165.347 68.36C163.782 69.0944 162.345 70.0752 160.845 70.9327" fill="none" opacity="1" stroke="#00b553" stroke-linecap="round" stroke-linejoin="round" stroke-opacity="0.8" stroke-width="4.52723"/>
<path d="M185.607 78.3294C186.554 78.8026 186.326 78.4236 185.929 79.6158" fill="none" opacity="1" stroke="#00b553" stroke-linecap="round" stroke-linejoin="round" stroke-opacity="0.8" stroke-width="4.52723"/>
<path d="M187.537 60.3201C187.537 59.0521 187.764 59.1279 186.894 59.9985" fill="none" opacity="1" stroke="#00b553" stroke-linecap="round" stroke-linejoin="round" stroke-opacity="0.8" stroke-width="4.52723"/>
<path d="M191.909 72.3745C191.909 72.0001 191.652 70.98 191.909 71.2514C194.474 73.9505 197.258 76.5842 199.023 79.8621C200.819 83.1984 202.51 86.9316 202.392 90.719C202.368 91.4786 196.324 92.1846 195.653 92.2165C191.241 92.4267 188.232 91.8753 184.422 89.9703" fill="none" opacity="1" stroke="#00b553" stroke-linecap="round" stroke-linejoin="round" stroke-opacity="0.8" stroke-width="4.52723"/>
<path d="M203.89 47.2912C204.014 47.0416 204.336 46.2728 204.264 46.5425C203.195 50.5507 201.576 54.4307 200.895 58.5226C200.443 61.2306 200.062 64.1427 200.895 66.7589C201.226 67.8009 212.259 65.3278 212.875 65.6357C217.019 67.7078 206.722 72.5684 206.136 72.7489C205.036 73.0873 203.858 73.1338 202.766 73.4977" fill="none" opacity="1" stroke="#00b553" stroke-linecap="round" stroke-linejoin="round" stroke-opacity="0.8" stroke-width="4.52723"/>
<path d="M345.779 377.492C350.913 382.626 329.898 380.007 328.557 379.739" fill="none" opacity="1" stroke="#00b553" stroke-linecap="round" stroke-linejoin="round" stroke-opacity="0.8" stroke-width="4.52723"/>
<path d="M332.675 384.98C334.346 393.333 335.401 401.932 334.922 410.438C334.837 411.938 333.053 413.358 331.552 413.433C329.927 413.514 328.684 411.854 327.434 410.812C323.862 407.836 321.047 402.729 318.449 398.832" fill="none" opacity="1" stroke="#00b553" stroke-linecap="round" stroke-linejoin="round" stroke-opacity="0.8" stroke-width="4.52723"/>
<path d="M347.276 402.201C347.401 401.702 347.837 401.183 347.651 400.704C346.921 398.828 346.661 395.295 344.656 395.462C342.725 395.623 343.505 399.172 343.158 401.078C342.579 404.261 344.672 409.532 347.651 411.186C351.859 413.524 351.411 401.861 350.271 399.581C350.16 399.357 350.16 400.106 350.271 400.329C350.674 401.134 351.229 401.856 351.769 402.576C351.98 402.858 352.268 403.075 352.517 403.324C355.088 405.895 357.348 407.817 361.128 407.817" fill="none" opacity="1" stroke="#00b553" stroke-linecap="round" stroke-linejoin="round" stroke-opacity="0.8" stroke-width="4.52723"/>
<path d="M360.754 396.211C360.754 395.962 360.659 395.231 360.754 395.462C361.965 398.423 362.488 401.698 364.123 404.448C365.296 406.42 367.155 407.938 368.99 409.314C371.055 410.863 371.611 403.585 371.611 403.324C371.611 399.151 370.46 396.157 368.616 392.467" fill="none" opacity="1" stroke="#00b553" stroke-linecap="round" stroke-linejoin="round" stroke-opacity="0.8" stroke-width="4.52723"/>
<path d="M378.724 396.586C379.364 394.665 379.937 387.885 378.35 389.472C377.219 390.602 376.01 391.759 375.354 393.216C373.743 396.798 376.693 408.832 382.468 405.945C385.66 404.349 382.65 392.093 380.97 392.093C380.456 392.093 380.539 393.079 380.596 393.591C380.945 396.735 383.847 401.783 386.96 402.95C394.997 405.964 401.298 389.412 396.694 385.729C394.035 383.601 391.402 391.218 392.201 393.216C393.603 396.719 402.894 397.594 400.438 403.324C398.174 408.606 390.185 402.069 392.576 398.083C395.276 393.582 402.823 392.772 407.177 390.596C408.425 389.972 409.597 389.165 410.92 388.724C411.295 388.599 412.396 388.526 412.044 388.349C407.735 386.195 404.182 393.437 404.182 396.586C404.182 400.276 411.558 401.115 413.915 400.329C415.272 399.877 415.448 398.405 416.162 397.334" fill="none" opacity="1" stroke="#00b553" stroke-linecap="round" stroke-linejoin="round" stroke-opacity="0.8" stroke-width="4.52723"/>
<path d="M420.654 390.596C420.654 393.201 419.434 395.688 418.408 398.083C418.064 398.886 418.408 396.336 418.408 395.462C418.408 394.09 418.408 392.717 418.408 391.344C418.408 389.221 417.681 382.035 420.654 381.61C423.777 381.164 427.279 385.24 429.265 387.226C430.519 388.48 432.634 391.344 432.634 391.344C432.634 391.344 432.457 390.398 432.26 390.596C431.44 391.415 431.886 394.496 431.886 395.462C431.886 395.712 431.85 396.458 431.886 396.211C432.302 393.298 431.222 383.167 432.26 381.61C432.816 380.776 436.806 384.445 437.876 384.98C439.573 385.828 442.02 385.742 443.491 386.477C443.99 386.727 442.243 386.727 441.994 387.226C441.649 387.916 441.991 389.967 442.368 390.596C443.037 391.71 446.358 393.969 447.609 392.467C450.832 388.601 445.15 380.397 440.871 379.739C435.633 378.933 436.378 387.1 436.378 389.847C436.378 392.548 439.365 420.187 445.737 407.443" fill="none" opacity="1" stroke="#00b553" stroke-linecap="round" stroke-linejoin="round" stroke-opacity="0.8" stroke-width="4.52723"/>
<path d="M450.979 360.645C450.979 359.897 450.868 357.659 450.979 358.399C452.545 368.843 452.527 379.567 455.097 389.847C455.571 391.742 455.865 394.47 457.718 395.088" fill="none" opacity="1" stroke="#00b553" stroke-linecap="round" stroke-linejoin="round" stroke-opacity="0.8" stroke-width="4.52723"/>
<path d="M464.456 374.123C454.125 374.123 444.012 372.584 433.757 371.877C431.488 371.72 429.255 373.369 427.019 372.251" fill="none" opacity="1" stroke="#00b553" stroke-linecap="round" stroke-linejoin="round" stroke-opacity="0.8" stroke-width="4.52723"/>
<path d="M416.91 65.2613C417.16 65.0118 417.765 64.1758 417.659 64.5126C415.568 71.1773 412.902 77.6567 410.92 84.3546C408.524 92.452 407.73 96.564 406.428 103.073" fill="none" opacity="1" stroke="#00b553" stroke-linecap="round" stroke-linejoin="round" stroke-opacity="0.8" stroke-width="4.52723"/>
<path d="M411.669 89.5959C414.044 89.5959 418.972 85.5563 421.029 88.8471C422.147 90.6373 420.776 105.945 417.659 107.192C415.826 107.925 416.536 104.661 416.536 104.571" fill="none" opacity="1" stroke="#00b553" stroke-linecap="round" stroke-linejoin="round" stroke-opacity="0.8" stroke-width="4.52723"/>
<path d="M431.511 77.2414C432.165 74.6269 431.846 75.682 431.511 78.3646C430.872 83.4792 430.268 88.5981 429.639 93.7141C429.394 95.7113 429.14 97.7074 428.891 99.7041" fill="none" opacity="1" stroke="#00b553" stroke-linecap="round" stroke-linejoin="round" stroke-opacity="0.8" stroke-width="4.52723"/>
<path d="M434.881 86.6009C431.906 85.1134 428.099 85.4993 425.147 86.9753" fill="none" opacity="1" stroke="#00b553" stroke-linecap="round" stroke-linejoin="round" stroke-opacity="0.8" stroke-width="4.52723"/>
<path d="M438.999 92.9653C438.999 93.4645 439.181 93.998 438.999 94.4628C438.043 96.906 437.976 100.403 435.629 101.576C433.951 102.415 435.75 97.8192 436.004 95.9603C436.211 94.437 438.5 85.7901 441.619 87.3496C443.626 88.3532 443.866 95.1328 443.866 97.0835C443.866 97.957 443.866 98.8305 443.866 99.7041C443.866 100.078 443.866 101.202 443.866 100.827C443.866 97.1294 444.829 92.8567 445.737 89.2215C445.805 88.9508 445.833 88.4728 446.112 88.4728C450.116 88.4728 447.126 118.054 453.225 103.822" fill="none" opacity="1" stroke="#00b553" stroke-linecap="round" stroke-linejoin="round" stroke-opacity="0.8" stroke-width="4.52723"/>
<path d="M459.964 78.3646C460.089 78.115 460.364 77.338 460.338 77.6158C459.939 81.8694 459.228 86.09 458.841 90.3447C458.229 97.0742 457.842 103.822 457.343 110.561" fill="none" opacity="1" stroke="#00b553" stroke-linecap="round" stroke-linejoin="round" stroke-opacity="0.8" stroke-width="4.52723"/>
<path d="M153.349 340.429C153.349 339.93 153.634 338.522 153.349 338.931C150.24 343.392 146.364 347.596 144.738 352.783C143.616 356.364 144.694 360.347 145.487 364.015C147.132 371.624 157.862 366.199 159.339 361.768" fill="none" opacity="1" stroke="#00b553" stroke-linecap="round" stroke-linejoin="round" stroke-opacity="0.8" stroke-width="4.52723"/>
<path d="M171.693 348.291C172.421 346.836 168.504 349.576 167.575 350.912C166.537 352.403 166.184 354.339 166.077 356.153C165.953 358.26 176.498 357.589 178.432 359.522C180.777 361.868 175.364 363.64 173.939 363.64" fill="none" opacity="1" stroke="#00b553" stroke-linecap="round" stroke-linejoin="round" stroke-opacity="0.8" stroke-width="4.52723"/>
<path d="M186.668 340.429C190.102 343.862 181.879 348.939 180.304 353.532C179.588 355.621 192.194 354.096 193.033 354.655C194.071 355.348 193.624 357.3 193.033 358.399C191.408 361.416 187.156 362.892 184.048 362.892" fill="none" opacity="1" stroke="#00b553" stroke-linecap="round" stroke-linejoin="round" stroke-opacity="0.8" stroke-width="4.52723"/>
<path d="M469.653 202.934C467.262 212.5 460.359 220.328 455.674 229.004C454.627 230.942 457.973 225.245 459.074 223.337C460.996 220.005 461.871 218.121 463.608 214.647C464.31 213.243 469.506 202.031 468.897 201.423C468.53 201.056 468.758 202.977 469.275 202.934C471.087 202.783 474.992 202.206 476.832 202.556C478.28 202.832 479.761 203.25 480.988 204.068C483.109 205.482 480.199 209.942 479.099 210.868C475.324 214.047 471.938 216.184 467.008 216.536C466.276 216.588 464.6 215.922 465.119 215.402C466.298 214.223 480.392 217.374 475.32 223.714C472.064 227.785 466.815 229.802 461.719 228.626C459.823 228.189 456.35 225.623 459.452 224.848" fill="none" opacity="1" stroke="#00b553" stroke-linecap="round" stroke-linejoin="round" stroke-opacity="0.8" stroke-width="4.52723"/>
<path d="M475.132 228.248C474.307 228.324 478.356 228.178 477.587 227.87C476.412 227.4 475.047 227.983 473.809 228.248C472.227 228.587 467.542 233.116 470.031 234.671C476.862 238.941 482.862 227.543 475.132 228.248Z" fill="none" opacity="1" stroke="#00b553" stroke-linecap="round" stroke-linejoin="round" stroke-opacity="0.8" stroke-width="4.52723"/>
<path d="M485.522 228.815C486.226 228.817 487.932 229.287 487.411 229.76C485.154 231.805 481.393 231.926 479.476 234.293C478.696 235.258 480.111 236.817 480.988 237.694C482.268 238.974 486.647 236.777 487.411 236.183C490.523 233.762 484.248 228.811 485.522 228.815Z" fill="none" opacity="1" stroke="#00b553" stroke-linecap="round" stroke-linejoin="round" stroke-opacity="0.8" stroke-width="4.52723"/>
<path d="M499.123 220.314C499.501 219.936 500.563 218.743 500.257 219.181C499.072 220.873 497.478 222.284 496.479 224.092C493.191 230.041 492.558 232.772 490.811 238.45" fill="none" opacity="1" stroke="#00b553" stroke-linecap="round" stroke-linejoin="round" stroke-opacity="0.8" stroke-width="4.52723"/>
<path d="M497.612 231.271C497.612 228.839 493.225 228.928 490.811 228.626C490.061 228.532 489.3 228.626 488.544 228.626" fill="none" opacity="1" stroke="#00b553" stroke-linecap="round" stroke-linejoin="round" stroke-opacity="0.8" stroke-width="4.52723"/>
<path d="M504.413 234.293C512.331 234.293 501.221 232 498.368 235.805C497.166 237.407 505.238 243.331 501.768 244.873C497.752 246.657 495.723 244.265 495.723 240.716" fill="none" opacity="1" stroke="#00b553" stroke-linecap="round" stroke-linejoin="round" stroke-opacity="0.8" stroke-width="4.52723"/>
<path d="M509.325 238.827C509.325 241.158 509.358 241.833 508.569 245.25C508.341 246.24 508.191 243.243 508.191 242.228C508.191 241.472 508.191 240.716 508.191 239.961C508.191 236.807 507.383 231.792 511.214 230.515" fill="none" opacity="1" stroke="#00b553" stroke-linecap="round" stroke-linejoin="round" stroke-opacity="0.8" stroke-width="4.52723"/>
<path d="M512.347 234.671C513.319 236.616 508.076 236.112 505.924 235.805C504.53 235.606 503.405 234.545 502.146 233.916" fill="none" opacity="1" stroke="#00b553" stroke-linecap="round" stroke-linejoin="round" stroke-opacity="0.8" stroke-width="4.52723"/>
<path d="M514.614 242.228C512.569 248.362 512.862 241.593 516.125 239.961C517.771 239.138 520.738 238.753 522.548 239.205C522.822 239.273 523.43 239.331 523.304 239.583C523.106 239.98 514.192 245.473 516.125 246.762C518.525 248.361 522.118 243.466 522.926 241.85C523.052 241.598 523.556 241.22 523.304 241.094C521.435 240.16 519.059 246.895 520.659 249.029C522.306 251.224 529.265 246.175 530.105 244.495C530.231 244.243 530.682 243.938 530.483 243.739C529.923 243.179 528.534 248.939 529.349 250.162C532.353 254.668 537.039 246.649 535.394 243.361C533.737 240.045 528.413 245.4 527.46 246.762C522.868 253.322 519.574 259.794 516.503 267.164C515.789 268.878 515.068 271.597 517.259 268.675" fill="none" opacity="1" stroke="#00b553" stroke-linecap="round" stroke-linejoin="round" stroke-opacity="0.8" stroke-width="4.52723"/>
<path d="M285.086 220.692C284.901 220.656 284.633 220.541 284.519 220.692C280.242 226.396 273.35 231.061 272.051 238.072C271.149 242.946 276.103 247.171 278.852 251.296C280.338 253.524 287.341 257.67 289.431 258.474C299.655 262.406 307.846 250.275 306.433 241.094C304.503 228.545 296.792 222.922 285.086 220.692Z" fill="none" opacity="1" stroke="#00b553" stroke-linecap="round" stroke-linejoin="round" stroke-opacity="0.8" stroke-width="4.52723"/>
<path d="M289.809 239.016C293.577 233.365 287.097 243.281 288.676 240.716C289.033 240.136 289.431 239.583 289.809 239.016Z" fill="none" opacity="1" stroke="#00b553" stroke-linecap="round" stroke-linejoin="round" stroke-opacity="0.8" stroke-width="4.52723"/>
<path d="M302.277 229.004C304.364 229.699 301.94 219.639 301.144 218.047C301.031 217.822 300.637 218.006 300.388 218.047C297.36 218.552 292.802 219.762 290.187 221.07" fill="none" opacity="1" stroke="#00b553" stroke-linecap="round" stroke-linejoin="round" stroke-opacity="0.8" stroke-width="4.52723"/>
<path d="M290.187 220.692C291.194 220.188 292.706 220.188 293.209 219.181C293.91 217.78 291.125 218.047 290.942 218.047C289.417 218.047 287.934 217.669 286.409 217.669C284.864 217.669 278.533 216.118 277.341 216.914C276.885 217.218 275.502 220.805 275.074 221.447C274.242 222.695 270.88 225.962 273.185 227.115" fill="none" opacity="1" stroke="#00b553" stroke-linecap="round" stroke-linejoin="round" stroke-opacity="0.8" stroke-width="4.52723"/>
<path d="M284.142 261.875C285.401 261.245 284.732 257.304 283.386 257.719C281.383 258.335 281.026 261.188 279.986 263.008C278.982 264.764 278.254 266.849 277.341 268.675" fill="none" opacity="1" stroke="#00b553" stroke-linecap="round" stroke-linejoin="round" stroke-opacity="0.8" stroke-width="4.52723"/>
<path d="M301.899 257.341C305.918 259.752 307.04 265.21 309.078 269.431" fill="none" opacity="1" stroke="#00b553" stroke-linecap="round" stroke-linejoin="round" stroke-opacity="0.8" stroke-width="4.52723"/>
<path d="M65.2012 224.747C65.2557 225.422 66.3374 225.926 66.1096 226.564C65.8902 227.178 64.8145 226.899 64.2927 227.29C62.3692 228.733 60.7057 230.496 58.8418 232.015C56.3714 234.027 53.5662 235.669 51.2105 237.829C51.0375 237.987 46.5512 242.021 46.8498 242.916C46.9354 243.173 47.3138 243.214 47.5766 243.28C49.6782 243.805 50.6074 244.494 52.3007 246.187C56.4323 250.319 59.9807 255.778 63.5659 260.359C64.728 261.844 66.7327 266.42 68.6534 266.9C68.7188 266.917 69.018 263.701 70.107 262.176C71.9317 259.622 75.2675 257.796 77.7382 255.999C80.5459 253.957 84.5267 252.202 87.9133 251.638C88.3837 251.559 92.3499 252.195 91.5472 250.911C86.3787 242.641 79.8299 233.37 73.3775 226.2C68.9236 221.251 64.3903 214.714 65.2012 224.747Z" fill="none" opacity="1" stroke="#00b553" stroke-linecap="round" stroke-linejoin="round" stroke-opacity="0.8" stroke-width="4.52723"/>
<path d="M92.6374 252.001C97.0048 254.185 101.595 255.892 106.083 257.816" fill="none" opacity="1" stroke="#00b553" stroke-linecap="round" stroke-linejoin="round" stroke-opacity="0.8" stroke-width="4.52723"/>
<path d="M67.5632 265.447C69.6337 261.306 70.2743 272.804 70.4704 274.895C70.8016 278.428 70.5825 281.916 70.8338 285.433C70.9291 286.768 71.1972 288.093 71.1972 289.431C71.1972 289.915 70.7638 291.101 71.1972 290.884C72.7622 290.102 74.2498 287.105 75.5579 285.797C76.8767 284.478 81.4307 281.823 82.099 281.436C87.8342 278.116 95.2962 279.575 100.269 274.895C103.377 271.969 105.181 268.255 107.9 265.083C108.252 264.672 109.111 263.872 109.354 264.357C110.233 266.116 106.424 267.093 105.356 267.627" fill="none" opacity="1" stroke="#00b553" stroke-linecap="round" stroke-linejoin="round" stroke-opacity="0.8" stroke-width="4.52723"/>
<path d="M91.5472 276.712C98.486 280.181 89.0954 266.9 89.0035 266.9C88.1216 266.9 88.9541 268.88 88.2767 269.444C87.2701 270.283 86.0963 270.898 85.0061 271.625C83.1006 272.895 81.0924 273.991 79.1918 275.258C78.9664 275.409 78.465 275.622 78.465 275.622C78.465 275.622 79.8075 275.59 80.282 275.985C82.1835 277.57 84.0047 280.843 85.3695 282.89" fill="none" opacity="1" stroke="#00b553" stroke-linecap="round" stroke-linejoin="round" stroke-opacity="0.8" stroke-width="4.52723"/>
<path d="M71.1972 274.532C77.3762 274.532 83.1436 269.727 87.5499 265.81" fill="none" opacity="1" stroke="#00b553" stroke-linecap="round" stroke-linejoin="round" stroke-opacity="0.8" stroke-width="4.52723"/>
<path d="M98.4517 257.816C98.8151 257.694 99.9249 257.452 99.5419 257.452C98.445 257.452 97.3494 257.613 96.2713 257.816C93.4691 258.341 90.7167 259.113 87.9133 259.633C84.4515 260.274 80.214 260.212 77.0115 261.813" fill="none" opacity="1" stroke="#00b553" stroke-linecap="round" stroke-linejoin="round" stroke-opacity="0.8" stroke-width="4.52723"/>
<path d="M69.3802 232.923C63.7449 235.143 59.8541 240.451 55.5712 244.733C55.2286 245.076 56.5403 244.733 57.0248 244.733C58.2711 244.733 58.0094 244.618 59.2052 245.097C60.4885 245.61 61.5643 247.092 62.4757 248.004C65.2953 250.823 67.255 254.6 70.107 257.452C70.2985 257.644 70.6422 258.007 70.8338 257.816C71.734 256.915 70.5105 253.213 71.5605 251.638C72.9594 249.54 83.5525 243.236 83.5525 242.916C83.5525 241.606 81.3722 241.463 80.282 240.736C77.1818 238.669 72.6456 231.637 69.3802 232.923Z" fill="none" opacity="1" stroke="#00b553" stroke-linecap="round" stroke-linejoin="round" stroke-opacity="0.8" stroke-width="4.52723"/>
<path d="M235.088 548.531C235.815 547.319 235.97 545.453 237.268 544.897C240.545 543.493 244.744 541.256 247.807 543.08C251.21 545.105 250.939 550.355 252.531 553.982C254.406 558.253 256.8 564.338 260.889 567.064C277.469 578.117 304.923 556.017 307.04 539.082" fill="none" opacity="1" stroke="#00b553" stroke-linecap="round" stroke-linejoin="round" stroke-opacity="0.8" stroke-width="4.52723"/>
<path d="M285.6 541.626C285.842 541.505 286.292 541.531 286.326 541.263C286.792 537.651 289.195 533.306 287.053 530.361C285.65 528.431 282.603 532.118 280.512 533.268C277.47 534.941 277.538 542.722 280.149 544.897C282.836 547.136 286.996 543.406 287.78 540.899C289.454 535.541 288.924 534.049 285.236 530.361" fill="none" opacity="1" stroke="#00b553" stroke-linecap="round" stroke-linejoin="round" stroke-opacity="0.8" stroke-width="4.52723"/>
<path d="M389.894 525.637C391.135 529.361 388.804 522.367 388.803 522.366C387.744 518.392 386.77 514.394 385.896 510.374C384.846 505.543 385.415 506.216 384.806 501.653C384.624 500.284 383.706 499.123 384.806 497.656C385.995 496.07 391.884 500.691 392.801 501.289C394.63 502.482 396.356 503.84 398.252 504.923C404.749 508.636 411.918 509.997 419.328 510.738C441.546 512.959 461.836 502.341 482.922 497.656" fill="none" opacity="1" stroke="#00b553" stroke-linecap="round" stroke-linejoin="round" stroke-opacity="0.8" stroke-width="4.52723"/>
<path d="M507.27 455.502C507.27 446.188 498.746 446.459 491.644 444.963C483.88 443.329 471.413 444.872 466.57 451.868C463.771 455.911 465.893 462.921 467.296 467.13C467.487 467.701 468.325 468.706 468.023 469.311C467.517 470.324 464.666 467.583 462.209 466.404C457.646 464.213 452.894 462.374 448.037 460.953C435.599 457.312 421.555 455.426 408.79 453.685" fill="none" opacity="1" stroke="#00b553" stroke-linecap="round" stroke-linejoin="round" stroke-opacity="0.8" stroke-width="4.52723"/>
<path d="M123.526 478.396C122.246 479.397 121.41 481.133 121.346 482.756C121.278 484.442 123.481 489.137 123.162 487.48C122.241 482.691 120.737 478.033 119.529 473.308C118.778 470.372 116.885 467.658 115.531 464.95C115.41 464.708 115.168 464.223 115.168 464.223C115.168 464.223 117.331 464.844 118.075 464.223C119.613 462.941 124.546 456.424 127.523 458.409C130.922 460.675 126.75 473.003 125.343 474.762C124.339 476.017 122.197 476.99 120.619 477.305C120.144 477.4 118.823 477.648 119.165 477.305C120.076 476.394 127.987 474.906 123.526 478.396Z" fill="none" opacity="1" stroke="#00b553" stroke-linecap="round" stroke-linejoin="round" stroke-opacity="0.8" stroke-width="4.52723"/>
<path d="M132.611 472.218C135.041 470.598 137.971 482.411 143.513 481.303C145.928 480.82 139.322 472.07 137.698 476.942C136.169 481.53 142.665 493.961 143.513 499.472C143.625 500.201 144.205 500.994 143.876 501.653C142.756 503.893 138.955 497.241 138.788 496.929C136.786 493.175 132.876 486.601 135.881 482.393C138.872 478.206 150.103 481.318 150.78 476.579C152.034 467.804 144.904 453.108 141.332 445.69C140.791 444.567 140.762 442.42 139.515 442.42C139.132 442.42 139.744 443.151 139.879 443.51C140.471 445.09 141.103 446.654 141.696 448.234C143.259 452.403 143.259 452.476 144.603 456.955C146.546 463.434 148.264 470.287 150.78 476.579C151.082 477.333 151.058 478.759 151.871 478.759C152.476 478.759 151.914 477.546 151.871 476.942C151.767 475.487 151.634 474.034 151.507 472.581C151.458 472.015 149.967 459.339 149.327 459.499C147.953 459.843 138.062 477.801 138.062 462.406" fill="none" opacity="1" stroke="#00b553" stroke-linecap="round" stroke-linejoin="round" stroke-opacity="0.8" stroke-width="4.52723"/>
<path d="M143.513 434.062C144.118 433.819 145.091 432.728 145.329 433.335C150.182 445.709 153.092 458.794 158.048 471.128C158.434 472.088 159.928 472.346 160.955 472.218C161.436 472.158 160.981 471.248 160.955 470.764C160.86 468.946 160.683 467.132 160.592 465.313C160.562 464.709 160.7 464.092 160.592 463.496C160.455 462.743 160.108 462.043 159.865 461.316C159.744 460.953 159.502 459.843 159.502 460.226C159.502 462.573 162.065 474.025 166.406 471.855C168.554 470.781 170.725 462.633 168.223 463.133C165.222 463.733 165.845 470.951 168.587 470.038C170.503 469.399 173.678 465.773 171.857 463.496C171.35 462.862 169.001 462.857 169.677 462.406C172.136 460.767 176.423 461.74 178.398 463.496C179.558 464.527 180.375 465.889 181.305 467.13C181.468 467.347 181.477 468.049 181.669 467.857C183.624 465.902 182.228 462.315 184.939 460.589C190.297 457.18 198.255 460.39 204.199 458.409" fill="none" opacity="1" stroke="#00b553" stroke-linecap="round" stroke-linejoin="round" stroke-opacity="0.8" stroke-width="4.52723"/>
<path d="M150.054 187.681C148.511 193.85 145.705 199.662 144.239 205.85C144.009 206.822 146.219 205.494 147.146 205.123C147.858 204.839 148.6 204.639 149.327 204.397C152.299 203.406 156.768 201.394 159.865 202.943" fill="none" opacity="1" stroke="#00b553" stroke-linecap="round" stroke-linejoin="round" stroke-opacity="0.8" stroke-width="4.52723"/>
<path d="M169.677 172.418C169.677 172.176 169.697 171.45 169.677 171.691C169.172 177.746 168.646 183.8 168.223 189.861C167.919 194.218 167.831 198.588 167.497 202.943C167.467 203.325 167.404 204.304 167.133 204.033C166.696 203.597 166.891 202.822 166.77 202.216" fill="none" opacity="1" stroke="#00b553" stroke-linecap="round" stroke-linejoin="round" stroke-opacity="0.8" stroke-width="4.52723"/>
<path d="M174.764 183.683C176.373 183.147 178.158 183.603 179.852 183.683C180.53 183.716 186.574 181.866 187.12 182.23C190.892 184.745 178.952 195.849 177.308 197.492" fill="none" opacity="1" stroke="#00b553" stroke-linecap="round" stroke-linejoin="round" stroke-opacity="0.8" stroke-width="4.52723"/>
<path d="M297.046 148.616C296.957 155.472 298.074 162.295 298.318 169.147C298.383 170.967 298.506 165.509 298.682 163.697C298.87 161.752 299.074 159.807 299.408 157.882C300.038 154.26 300.792 149.533 303.769 146.98C304.682 146.198 306.647 145.9 307.767 145.527C308.28 145.356 309.22 144.258 309.22 144.8C309.22 148.079 297.071 146.767 297.046 148.616Z" fill="none" opacity="1" stroke="#00b553" stroke-linecap="round" stroke-linejoin="round" stroke-opacity="0.8" stroke-width="4.52723"/>
<path d="M310.31 157.519C306.777 158.402 303.048 158.106 299.408 158.246" fill="none" opacity="1" stroke="#00b553" stroke-linecap="round" stroke-linejoin="round" stroke-opacity="0.8" stroke-width="4.52723"/>
<path d="M308.857 166.604C305.973 168.406 302.044 167.835 298.682 167.33" fill="none" opacity="1" stroke="#00b553" stroke-linecap="round" stroke-linejoin="round" stroke-opacity="0.8" stroke-width="4.52723"/>
<path d="M313.944 145.527C313.944 145.285 313.944 144.558 313.944 144.8C313.944 149.161 313.77 153.525 313.944 157.882C314.049 160.506 317.942 182.518 317.942 174.235" fill="none" opacity="1" stroke="#00b553" stroke-linecap="round" stroke-linejoin="round" stroke-opacity="0.8" stroke-width="4.52723"/>
<path d="M327.39 166.967C327.148 166.967 326.868 167.097 326.663 166.967C323.2 164.774 319.103 163.219 316.488 160.063C315.249 158.567 315.725 156.149 316.125 154.248C316.27 153.557 317.31 153.474 317.942 153.158C325.594 149.332 329.452 159.293 324.483 162.606C322.48 163.941 318.967 162.27 319.395 159.699C319.904 156.644 321.839 154.843 324.483 153.522C325.275 153.125 326.742 152.416 327.753 152.795C330.704 153.901 333.317 165.764 332.114 166.967C331.22 167.861 331.094 164.596 331.024 163.333C330.902 161.146 330.29 156.072 332.114 154.248C332.598 153.764 333.235 155.103 333.568 155.702C334.965 158.218 335.536 162.031 337.565 164.06C339.432 165.928 338.247 158.178 340.835 158.609C345.403 159.37 347.875 170.687 353.918 167.33C354.628 166.936 355.582 165.725 355.008 165.15C351.083 161.225 344.266 161.894 345.196 153.522C345.315 152.455 345.587 151.509 346.65 150.978C351.809 148.398 354.281 158.462 354.281 161.516C354.281 161.787 354.183 162.19 353.918 162.243C350.189 162.989 350.771 153.784 357.915 154.975C360.457 155.399 361.672 161.157 362.276 162.97C362.518 163.697 362.817 164.407 363.002 165.15C363.061 165.385 363.002 166.119 363.002 165.877C363.002 156.036 363.729 146.265 363.729 136.442C363.729 134.983 363.519 133.532 363.366 132.081C363.276 131.229 363.002 128.681 363.002 129.538C363.002 134.093 365.88 139.489 367.363 143.71C369.395 149.492 371.197 155.353 373.177 161.153C373.992 163.538 375.756 169.113 377.538 167.33" fill="none" opacity="1" stroke="#00b553" stroke-linecap="round" stroke-linejoin="round" stroke-opacity="0.8" stroke-width="4.52723"/>
<path d="M375.721 141.53C371.952 137.761 364.94 140.397 359.732 141.53C358.714 141.751 358.036 142.741 357.188 143.346" fill="none" opacity="1" stroke="#00b553" stroke-linecap="round" stroke-linejoin="round" stroke-opacity="0.8" stroke-width="4.52723"/>
<path d="M481.471 310.795C481.832 310.674 482.776 310.122 482.556 310.433C479.722 314.426 475.673 317.614 473.513 322.008C472.061 324.962 472.271 328.49 472.066 331.775C471.929 333.96 473.935 333.975 475.321 334.668" fill="none" opacity="1" stroke="#00b553" stroke-linecap="round" stroke-linejoin="round" stroke-opacity="0.8" stroke-width="4.52723"/>
<path d="M491.96 315.136C492.563 315.618 493.824 315.812 493.769 316.582C493.196 324.611 492.846 332.872 490.152 340.456C489.356 342.697 486.152 343.055 484.003 344.073C483.759 344.188 483.52 343.832 483.279 343.711" fill="none" opacity="1" stroke="#00b553" stroke-linecap="round" stroke-linejoin="round" stroke-opacity="0.8" stroke-width="4.52723"/>
<path d="M515.834 120.532C515.834 119.345 514.762 122.661 514.387 123.788C513.322 126.981 512.33 131.993 509.684 134.639C506.646 137.677 499.508 134.341 498.471 135.724C496.277 138.649 498.833 142.643 498.833 145.491C498.833 148.453 493.213 148.634 492.684 151.278C491.957 154.912 492.684 160.115 492.684 163.938" fill="none" opacity="1" stroke="#00b553" stroke-linecap="round" stroke-linejoin="round" stroke-opacity="0.8" stroke-width="4.52723"/>
<path d="M528.132 131.745C527.214 130.827 526.64 134.065 526.685 135.363C526.859 140.412 530.209 147.579 528.494 152.725C527.561 155.523 522.448 154.086 520.536 153.448C519.513 153.107 517.642 150.923 517.642 152.002C517.642 155.206 523.755 160.087 522.345 165.023C521.452 168.146 509.74 166.095 506.791 166.832" fill="none" opacity="1" stroke="#00b553" stroke-linecap="round" stroke-linejoin="round" stroke-opacity="0.8" stroke-width="4.52723"/>
<path d="M51.7516 354.201C51.9928 354.322 52.622 354.337 52.4751 354.563C50.8844 357.01 49.1517 359.411 47.0493 361.435C45.6038 362.827 41.9853 362.684 41.9853 364.691C41.9853 365.828 44.1387 365.636 44.879 366.499C46.8742 368.827 48.8989 371.208 50.6665 373.734C52.4448 376.274 54.3457 378.922 55.7305 381.691C55.8511 381.933 55.8226 382.415 56.0922 382.415C56.3191 382.415 61.6312 375.904 64.05 375.904" fill="none" opacity="1" stroke="#00b553" stroke-linecap="round" stroke-linejoin="round" stroke-opacity="0.8" stroke-width="4.52723"/>
<path d="M63.3265 350.584C71.4309 345.181 71.9401 356.132 75.9866 361.797C76.4397 362.431 80.7648 366.633 80.6889 366.861C80.3539 367.866 69.7493 372.88 68.0289 373.372" fill="none" opacity="1" stroke="#00b553" stroke-linecap="round" stroke-linejoin="round" stroke-opacity="0.8" stroke-width="4.52723"/>
<path d="M223.4 302.664C220.549 304.802 216.417 306.152 214.494 302.307C212.071 297.46 222.19 295.469 220.907 291.62C218.321 283.863 210.821 294.249 208.794 290.195" fill="none" opacity="1" stroke="#00b553" stroke-linecap="round" stroke-linejoin="round" stroke-opacity="0.8" stroke-width="4.52723"/>
<path d="M206.479 283.248C204.714 282.878 207.349 286.766 208.082 288.414C208.664 289.725 209.221 291.049 209.863 292.332C210.054 292.715 210.16 293.297 210.575 293.401C210.901 293.483 211.03 292.904 211.288 292.689C213.136 291.148 214.604 289.477 216.632 288.057C217.726 287.292 219.607 287.22 220.55 286.276C220.862 285.965 216.292 280.081 215.207 279.864C212.693 279.361 210.616 284.116 206.479 283.248Z" fill="none" opacity="1" stroke="#00b553" stroke-linecap="round" stroke-linejoin="round" stroke-opacity="0.8" stroke-width="4.52723"/>
<path d="M215.919 278.439C211.234 270.63 215.481 262.71 213.782 254.214C212.673 248.671 209.324 243.967 205.588 239.608C200.015 233.105 184.869 231.033 179.938 239.251C176.017 245.786 176.418 251.574 177.801 258.489C179.527 267.122 186.633 265.826 192.05 269.889C197.723 274.143 201.851 278.27 204.163 285.207" fill="none" opacity="1" stroke="#00b553" stroke-linecap="round" stroke-linejoin="round" stroke-opacity="0.8" stroke-width="4.52723"/>
<path d="M206.657 270.957C209.189 270.957 199.698 262.985 198.463 261.339C195.829 257.826 200.225 255.919 199.532 253.145C198.924 250.715 194.513 250.393 192.763 249.226" fill="none" opacity="1" stroke="#00b553" stroke-linecap="round" stroke-linejoin="round" stroke-opacity="0.8" stroke-width="4.52723"/>
<path d="M227.319 256.351C225.461 258.829 223.946 261.546 222.332 264.189" fill="none" opacity="1" stroke="#00b553" stroke-linecap="round" stroke-linejoin="round" stroke-opacity="0.8" stroke-width="4.52723"/>
<path d="M220.55 234.264C219.755 236.651 218.894 239.016 218.057 241.389" fill="none" opacity="1" stroke="#00b553" stroke-linecap="round" stroke-linejoin="round" stroke-opacity="0.8" stroke-width="4.52723"/>
<path d="M202.738 222.508C202.857 223.339 202.975 224.17 203.094 225.001" fill="none" opacity="1" stroke="#00b553" stroke-linecap="round" stroke-linejoin="round" stroke-opacity="0.8" stroke-width="4.52723"/>
<path d="M168.182 221.795C169.538 222.247 170.457 223.559 171.388 224.645" fill="none" opacity="1" stroke="#00b553" stroke-linecap="round" stroke-linejoin="round" stroke-opacity="0.8" stroke-width="4.52723"/>
<path d="M167.469 245.308C167.469 243.393 163.627 245.556 161.769 246.02" fill="none" opacity="1" stroke="#00b553" stroke-linecap="round" stroke-linejoin="round" stroke-opacity="0.8" stroke-width="4.52723"/>
<path d="M172.457 278.795C170.924 278.284 169.27 279.498 167.826 280.22" fill="none" opacity="1" stroke="#00b553" stroke-linecap="round" stroke-linejoin="round" stroke-opacity="0.8" stroke-width="4.52723"/>
<path d="M288.183 76.3027C293.298 84.6161 302.484 79.5942 300.376 71.4422C296.992 58.3551 279.721 63.0712 279.687 75.3686C279.652 88.0207 293.401 98.6324 305.579 97.0667C311.052 96.363 319.558 82.0583 321.493 77.154" fill="none" opacity="1" stroke="#00b553" stroke-linecap="round" stroke-linejoin="round" stroke-opacity="0.8" stroke-width="4.52723"/>
<path d="M320.012 36.4773C324.483 33.7268 328.491 29.6765 333.617 28.5475C336.811 27.8441 340.162 29.6327 343.095 31.0779C350.506 34.7288 352.709 70.2724 364.468 54.0155C365.634 52.4047 366.992 49.4655 367.674 47.4227C368.487 44.9867 369.205 42.5199 369.971 40.0686" fill="none" opacity="1" stroke="#00b553" stroke-linecap="round" stroke-linejoin="round" stroke-opacity="0.8" stroke-width="4.52723"/>
<path d="M385.199 260.642C386.879 260.311 391.735 258.598 390.116 259.157C386.593 260.375 383.103 261.73 379.483 262.618C377.719 263.051 375.814 262.642 374.056 263.096C373 263.369 375.621 264.618 376.364 265.417C377.978 267.153 379.809 270.024 380.747 272.183C383.075 277.545 385.956 283.555 386.466 289.348C386.491 289.626 386.258 288.758 386.392 288.513C386.771 287.82 387.373 287.271 387.915 286.696C388.89 285.662 391.639 283.207 392.593 282.498C396.995 279.224 408.622 276.863 407.083 270.283C405.512 263.568 400.985 259.287 393.873 258.826C391.698 258.685 378.112 262.038 385.199 260.642Z" fill="none" opacity="1" stroke="#00b553" stroke-linecap="round" stroke-linejoin="round" stroke-opacity="0.8" stroke-width="4.52723"/>
<path d="M400.994 263.247C400.844 261.548 398.037 265.128 397.077 266.537C394.591 270.187 391.813 278.647 386.565 280.925" fill="none" opacity="1" stroke="#00b553" stroke-linecap="round" stroke-linejoin="round" stroke-opacity="0.8" stroke-width="4.52723"/>
<path d="M390.153 259.575C387.329 264.368 384.03 268.865 380.857 273.435" fill="none" opacity="1" stroke="#00b553" stroke-linecap="round" stroke-linejoin="round" stroke-opacity="0.8" stroke-width="4.52723"/>
<path d="M73.6541 162.516C71.7457 165.839 72.4913 176.672 74.2537 178.87C74.939 179.725 78.0555 175.102 78.5146 174.709C80.7483 172.796 83.4787 171.788 86.1887 171.088C86.4911 171.009 86.9145 170.9 86.9868 170.597C87.4625 168.6 75.6434 159.052 73.6541 162.516Z" fill="none" opacity="1" stroke="#00b553" stroke-linecap="round" stroke-linejoin="round" stroke-opacity="0.8" stroke-width="4.52723"/>
<path d="M288.454 459.174C287.876 458.759 290.964 458.381 290.306 458.111C286.906 456.721 283.176 456.336 279.589 455.547C278.279 455.259 273.409 453.866 271.194 454.711C270.068 455.14 274.493 463.39 274.654 465.03C275.1 469.562 275.494 474.053 275.795 478.61C275.817 478.94 275.385 479.486 275.696 479.598C277.503 480.245 279.17 478.115 280.832 478.114C287.113 478.112 301.055 483.496 305.423 476.575C306.143 475.434 303.509 472.87 303.446 471.39C303.289 467.701 304.416 456.713 299.045 455.491C295.249 454.627 291.077 461.058 288.454 459.174Z" fill="none" opacity="1" stroke="#00b553" stroke-linecap="round" stroke-linejoin="round" stroke-opacity="0.8" stroke-width="4.52723"/>
<path d="M297.342 457.566C298.797 458.087 301.16 458.125 301.91 456.774C303.763 453.434 303.167 449.235 304.029 445.514C304.447 443.712 306.217 441.909 305.558 440.18C303.813 435.605 289.3 449.512 292.279 453.321C293.636 455.055 295.269 456.822 297.342 457.566Z" fill="none" opacity="1" stroke="#00b553" stroke-linecap="round" stroke-linejoin="round" stroke-opacity="0.8" stroke-width="4.52723"/>
<path d="M274.698 449.574C275.505 449.821 277.034 451.153 277.118 450.314C277.233 449.158 266.692 439.473 265.41 437.676C265.395 437.656 262.189 432.867 262.89 432.936C264.032 433.05 265.315 439.536 265.609 440.688C267.508 448.145 268.208 454.648 267.443 462.317" fill="none" opacity="1" stroke="#00b553" stroke-linecap="round" stroke-linejoin="round" stroke-opacity="0.8" stroke-width="4.52723"/>
<path d="M263.323 351.349C261.9 350.389 261.685 349.955 260.162 349.548C255.801 348.382 252.445 353.585 252.626 357.533C252.72 359.587 253.542 361.743 252.942 363.794C252.389 365.686 250.145 365.559 249.017 366.878C247.1 369.121 248.997 375.831 251.345 377.113C255.89 379.595 263.453 379.525 263.122 372.303C263.049 370.712 260.294 368.54 261.649 366.793C262.651 365.502 265.465 366.021 266.718 364.557C269.902 360.832 266.761 353.668 263.323 351.349Z" fill="none" opacity="1" stroke="#00b553" stroke-linecap="round" stroke-linejoin="round" stroke-opacity="0.8" stroke-width="4.52723"/>
<path d="M265.448 351.426C268.651 345.56 272.529 338.336 273.34 331.573" fill="none" opacity="1" stroke="#00b553" stroke-linecap="round" stroke-linejoin="round" stroke-opacity="0.8" stroke-width="4.52723"/>
<path d="M273.424 330.871C271.707 330.309 269.114 328.941 267.619 330.353C267.522 330.445 267.044 334.42 266.918 334.714C265.001 339.181 262.84 343.397 261.578 348.118" fill="none" opacity="1" stroke="#00b553" stroke-linecap="round" stroke-linejoin="round" stroke-opacity="0.8" stroke-width="4.52723"/>
<path d="M256.304 368.374C256.155 370.097 253.903 368.51 254.73 371.119C255.414 373.273 260.641 368.1 258.193 367.445C256.979 367.121 256.417 367.068 256.304 368.374Z" fill="none" opacity="1" stroke="#00b553" stroke-linecap="round" stroke-linejoin="round" stroke-opacity="0.8" stroke-width="4.52723"/>
<path d="M261.193 354.294C261.397 352.591 259.302 357.189 258.697 358.795C258.155 360.236 257.982 361.791 257.625 363.288" fill="none" opacity="1" stroke="#00b553" stroke-linecap="round" stroke-linejoin="round" stroke-opacity="0.8" stroke-width="4.52723"/>
<path d="M263.212 355.247C262.242 358.204 260.91 361.03 259.686 363.891" fill="none" opacity="1" stroke="#00b553" stroke-linecap="round" stroke-linejoin="round" stroke-opacity="0.8" stroke-width="4.52723"/>
<path d="M270.325 332.989C268.088 338.027 265.99 343.125 263.877 348.216" fill="none" opacity="1" stroke="#00b553" stroke-linecap="round" stroke-linejoin="round" stroke-opacity="0.8" stroke-width="4.52723"/>
<path d="M272.603 328.818C274.648 329.597 275.634 330.609 275.52 329.701C275.269 327.714 275.418 325.151 275.947 323.174C275.995 322.994 276 322.647 276.185 322.669C277.14 322.784 275.24 324.267 274.573 324.254C272.9 324.221 269.528 322.54 267.955 323.105C266.667 323.566 267.672 326.944 267.563 327.858" fill="none" opacity="1" stroke="#00b553" stroke-linecap="round" stroke-linejoin="round" stroke-opacity="0.8" stroke-width="4.52723"/>
<path d="M551.311 370.033C554.22 370.033 545.79 368.05 542.902 367.698C538.543 367.166 530.895 367.698 526.085 367.698" fill="none" opacity="1" stroke="#00b553" stroke-linecap="round" stroke-linejoin="round" stroke-opacity="0.8" stroke-width="4.52723"/>
<path d="M526.085 370.033C527.71 370.033 527.638 373.086 527.486 374.705C526.884 381.129 526.085 386.613 526.085 392.923" fill="none" opacity="1" stroke="#00b553" stroke-linecap="round" stroke-linejoin="round" stroke-opacity="0.8" stroke-width="4.52723"/>
<path d="M526.085 392.456C524.507 392.171 523.104 393.756 521.88 394.792C520.639 395.842 518.937 398.949 520.479 399.463C523.121 400.344 528.808 392.948 526.085 392.456Z" fill="none" opacity="1" stroke="#00b553" stroke-linecap="round" stroke-linejoin="round" stroke-opacity="0.8" stroke-width="4.52723"/>
<path d="M549.909 371.435C550.221 371.59 550.825 371.554 550.843 371.902C551.146 377.499 550.965 383.115 550.843 388.719C550.809 390.284 550.532 391.833 550.376 393.391" fill="none" opacity="1" stroke="#00b553" stroke-linecap="round" stroke-linejoin="round" stroke-opacity="0.8" stroke-width="4.52723"/>
<path d="M548.508 393.157C548.041 392.301 548.053 390.351 547.106 390.588C544.959 391.124 543.195 392.951 541.968 394.792C541.185 395.965 541.019 397.671 541.5 398.996C542.32 401.25 552.162 399.857 548.508 393.157Z" fill="none" opacity="1" stroke="#00b553" stroke-linecap="round" stroke-linejoin="round" stroke-opacity="0.8" stroke-width="4.52723"/>
<path d="M546.172 394.792C543.871 398.243 545.202 396.921 542.435 398.996" fill="none" opacity="1" stroke="#00b553" stroke-linecap="round" stroke-linejoin="round" stroke-opacity="0.8" stroke-width="4.52723"/>
<path d="M215.944 501.555C218.651 500.202 205.196 505.844 206.856 509.994C207.968 512.774 210.347 519.265 212.698 521.028C213.085 521.319 213.654 522.02 213.996 521.677C214.455 521.218 213.869 520.367 213.996 519.73C214.747 515.976 220.07 515.082 223.084 515.835C228.494 517.188 228.79 525.81 225.031 528.818C222.475 530.863 218.259 530.116 215.295 530.116" fill="none" opacity="1" stroke="#00b553" stroke-linecap="round" stroke-linejoin="round" stroke-opacity="0.8" stroke-width="4.52723"/>
<path d="M332.782 564.518C332.782 564.085 333.088 562.914 332.782 563.22C332.298 563.704 332.045 564.489 332.133 565.167C332.704 569.543 333.805 573.834 334.729 578.149C335.361 581.095 335.988 583.913 337.326 586.588" fill="none" opacity="1" stroke="#00b553" stroke-linecap="round" stroke-linejoin="round" stroke-opacity="0.8" stroke-width="4.52723"/>
<path d="M336.028 549.589C339.515 561.213 340.371 573.48 343.168 585.289C343.52 586.778 343.817 582.276 343.817 580.746C343.817 578.356 343.464 575.977 343.168 573.606C342.963 571.97 342.138 566.085 341.22 565.167C339.491 563.438 332.068 569.516 329.537 570.36" fill="none" opacity="1" stroke="#00b553" stroke-linecap="round" stroke-linejoin="round" stroke-opacity="0.8" stroke-width="4.52723"/>
<path d="M346.413 552.834C346.413 552.402 346.341 551.11 346.413 551.536C348.216 562.126 349.718 572.767 351.606 583.342C351.883 584.893 352.472 586.371 352.904 587.886" fill="none" opacity="1" stroke="#00b553" stroke-linecap="round" stroke-linejoin="round" stroke-opacity="0.8" stroke-width="4.52723"/>
<path d="M352.904 565.816C349.71 569.011 344.333 568.731 339.922 569.711" fill="none" opacity="1" stroke="#00b553" stroke-linecap="round" stroke-linejoin="round" stroke-opacity="0.8" stroke-width="4.52723"/>
<path d="M352.904 556.729C354.711 562.151 353.469 576.16 357.448 578.149C357.45 578.15 356.821 569.264 356.799 569.062C356.202 563.691 355.302 558.236 354.852 552.834C354.744 551.541 354.852 548.94 354.852 548.94C354.852 548.94 355.612 552.003 356.15 553.483C356.617 554.769 357.015 556.08 357.448 557.378C358.629 560.922 359.791 564.35 361.343 567.764C361.743 568.645 361.957 571.044 362.641 570.36C364.457 568.544 358.766 548.271 360.044 546.992C360.387 546.65 361.138 547.203 361.343 547.642C362.703 550.556 363.443 553.723 364.588 556.729C365.985 560.396 370.349 575.093 373.676 576.202C374.086 576.339 373.676 575.337 373.676 574.904C373.676 573.173 373.676 571.442 373.676 569.711C373.676 568.846 373.676 567.98 373.676 567.115" fill="none" opacity="1" stroke="#00b553" stroke-linecap="round" stroke-linejoin="round" stroke-opacity="0.8" stroke-width="4.52723"/>
<path d="M371.079 550.238C371.728 550.022 372.839 548.931 373.026 549.589C375.818 559.36 375.004 578.738 384.061 560.624" fill="none" opacity="1" stroke="#00b553" stroke-linecap="round" stroke-linejoin="round" stroke-opacity="0.8" stroke-width="4.52723"/>
<path d="M232.496 133.514C233.647 132.33 238.004 131.949 236.715 130.918C235.07 129.602 228.572 133.455 226.978 134.163C225.469 134.834 217.666 135.263 217.242 136.11C216.678 137.239 218.489 138.306 219.189 139.356C221.28 142.493 222.334 145.594 223.733 149.093C223.969 149.682 227.113 157.531 227.628 157.531C228.709 157.531 229.211 155.963 230.224 155.584C234.753 153.885 238.828 151.493 243.206 149.742C244.184 149.35 246.697 148.619 247.75 148.443C248.39 148.337 249.697 149.093 249.697 148.443C249.697 146.883 246.777 147.065 245.802 145.847C243.012 142.359 241.021 137.938 238.662 134.163C237.707 132.635 236.729 129.98 236.066 128.321C235.905 127.919 236.066 126.59 236.066 127.023C236.066 129.456 236.85 132.422 234.119 133.514C231.851 134.421 231.563 134.474 232.496 133.514Z" fill="none" opacity="1" stroke="#00b553" stroke-linecap="round" stroke-linejoin="round" stroke-opacity="0.8" stroke-width="4.52723"/>
<path d="M226.978 165.32C226.978 163.576 227.285 158.417 227.628 160.127C228.179 162.885 227.976 165.775 227.628 168.566C227.491 169.66 226.978 166.423 226.978 165.32Z" fill="none" opacity="1" stroke="#00b553" stroke-linecap="round" stroke-linejoin="round" stroke-opacity="0.8" stroke-width="4.52723"/>
<path d="M243.855 149.742C247.989 149.742 250.139 155.143 252.943 158.18" fill="none" opacity="1" stroke="#00b553" stroke-linecap="round" stroke-linejoin="round" stroke-opacity="0.8" stroke-width="4.52723"/>
<path d="M234.768 122.479C234.375 124.837 231.729 129.619 234.119 129.619C236.538 129.619 235.019 124.865 235.417 122.479C235.668 120.97 237.596 117.936 236.066 117.936C234.491 117.936 235.027 120.926 234.768 122.479Z" fill="none" opacity="1" stroke="#00b553" stroke-linecap="round" stroke-linejoin="round" stroke-opacity="0.8" stroke-width="4.52723"/>
<path d="M214.645 126.374L213.347 126.374L208.804 124.427L207.505 123.128L207.505 123.128" fill="none" opacity="1" stroke="#00b553" stroke-linecap="round" stroke-linejoin="round" stroke-opacity="0.8" stroke-width="4.52723"/>
<path d="M344.791 326.622C343.814 326.706 345.123 322.975 344.466 323.701C341.927 326.508 339.141 329.688 338.624 333.438C338.091 337.302 341.214 343.174 345.115 343.174C351.647 343.174 353.559 325.867 344.791 326.622Z" fill="none" opacity="1" stroke="#00b553" stroke-linecap="round" stroke-linejoin="round" stroke-opacity="0.8" stroke-width="4.52723"/>
<path d="M347.711 316.561C349.502 314.77 349.759 311.893 350.308 309.421" fill="none" opacity="1" stroke="#00b553" stroke-linecap="round" stroke-linejoin="round" stroke-opacity="0.8" stroke-width="4.52723"/>
<path d="M329.537 317.859C331.177 316.219 331.109 317.108 330.186 315.263" fill="none" opacity="1" stroke="#00b553" stroke-linecap="round" stroke-linejoin="round" stroke-opacity="0.8" stroke-width="4.52723"/>
<path d="M324.344 331.49C321.479 330.535 323.008 331.147 319.8 329.543" fill="none" opacity="1" stroke="#00b553" stroke-linecap="round" stroke-linejoin="round" stroke-opacity="0.8" stroke-width="4.52723"/>
<path d="M333.431 348.367L335.379 348.367L338.624 347.718L339.922 348.367L341.87 349.665L341.87 349.665" fill="none" opacity="1" stroke="#00b553" stroke-linecap="round" stroke-linejoin="round" stroke-opacity="0.8" stroke-width="4.52723"/>
<path d="M350.957 348.367C355.152 350.464 359.504 352.082 363.939 353.56" fill="none" opacity="1" stroke="#00b553" stroke-linecap="round" stroke-linejoin="round" stroke-opacity="0.8" stroke-width="4.52723"/>
<path d="M365.886 336.034C369.477 335.236 373.353 335.142 376.921 336.034" fill="none" opacity="1" stroke="#00b553" stroke-linecap="round" stroke-linejoin="round" stroke-opacity="0.8" stroke-width="4.52723"/>
<path d="M366.535 326.298C368.173 323.841 368.385 324.902 366.535 323.052" fill="none" opacity="1" stroke="#00b553" stroke-linecap="round" stroke-linejoin="round" stroke-opacity="0.8" stroke-width="4.52723"/>
<path d="M320.449 347.718C321.998 346.685 326.658 343.64 324.993 344.472C322.9 345.519 321.055 347.007 319.151 348.367C318.757 348.648 320.047 347.986 320.449 347.718Z" fill="none" opacity="1" stroke="#00b553" stroke-linecap="round" stroke-linejoin="round" stroke-opacity="0.8" stroke-width="4.52723"/>
<path d="M103.324 421.067C89.9839 409.25 74.3085 415.35 78.3339 431.452C78.88 433.636 82.3259 435.249 84.1758 433.399C88.5172 429.058 87.5134 423.255 95.2106 421.716C100.237 420.71 110.86 427.741 103.324 421.067Z" fill="none" opacity="1" stroke="#00b553" stroke-linecap="round" stroke-linejoin="round" stroke-opacity="0.8" stroke-width="4.52723"/>
<path d="M102.351 423.014C103 422.581 104.699 422.385 104.298 421.716C103.551 420.471 101.845 419.599 100.403 419.768C97.8302 420.071 89.0095 424.335 86.1231 426.259" fill="none" opacity="1" stroke="#00b553" stroke-linecap="round" stroke-linejoin="round" stroke-opacity="0.8" stroke-width="4.52723"/>
<path d="M104.298 422.365C99.6213 403.658 125.718 406.809 125.718 415.225" fill="none" opacity="1" stroke="#00b553" stroke-linecap="round" stroke-linejoin="round" stroke-opacity="0.8" stroke-width="4.52723"/>
<path d="M106.245 423.014C106.245 417.516 119.432 413.926 124.42 413.926" fill="none" opacity="1" stroke="#00b553" stroke-linecap="round" stroke-linejoin="round" stroke-opacity="0.8" stroke-width="4.52723"/>
<path d="M382.763 203.617C382.763 203.184 382.763 202.752 382.763 202.319" fill="none" opacity="1" stroke="#00b553" stroke-linecap="round" stroke-linejoin="round" stroke-opacity="0.8" stroke-width="4.52723"/>
<path d="M394.447 200.372C396.229 198.59 396.326 199.267 393.798 198.424" fill="none" opacity="1" stroke="#00b553" stroke-linecap="round" stroke-linejoin="round" stroke-opacity="0.8" stroke-width="4.52723"/>
<path d="M383.412 214.003C387.109 215.851 388.372 222.224 392.5 222.441C395.317 222.589 395.565 217.704 397.043 215.301C397.297 214.889 397.476 214.436 397.692 214.003" fill="none" opacity="1" stroke="#00b553" stroke-linecap="round" stroke-linejoin="round" stroke-opacity="0.8" stroke-width="4.52723"/>
<path d="M559.319 318.508C559.535 318.076 560.287 317.574 559.968 317.21C558.543 315.582 556.525 312.043 554.775 313.315C552.27 315.138 553.337 319.347 552.828 322.403C552.693 323.214 552.661 326.131 553.477 326.947C557.101 330.571 564.693 313.036 558.021 311.368C552.307 309.94 552.473 324.832 557.372 325.648C560.495 326.169 562.164 317.439 559.968 316.561C555.898 314.933 552.258 322.567 550.231 324.999C549.929 325.362 546.086 329.292 546.337 329.543C547.992 331.198 550.231 326.947 552.179 325.648C553.63 324.681 555.227 323.95 556.722 323.052C557.319 322.694 566.459 316.57 566.459 316.561C566.459 314.427 546.571 311.666 545.039 313.965C543.248 316.65 555.038 316.951 556.073 317.21C558.099 317.717 558.254 319.684 559.319 321.105C559.92 321.907 561.744 322.918 561.266 324.35C561.129 324.761 560.306 324.621 559.968 324.35C557.687 322.525 553.468 312.995 548.933 315.263C545.997 316.731 551.233 329.423 552.179 330.841C553.044 332.139 553.672 333.633 554.775 334.736C555.117 335.078 555.783 335.772 556.073 335.385C556.735 334.502 556.506 333.221 556.722 332.139" fill="none" opacity="1" stroke="#00b553" stroke-linecap="round" stroke-linejoin="round" stroke-opacity="0.8" stroke-width="4.52723"/>
<path d="M555.1 200.047C554.542 201.575 553.855 204.487 555.424 204.915C557.055 205.36 559.204 202.624 558.67 201.021C558.085 199.267 555.26 199.56 553.477 199.073C550.529 198.27 549.269 200.685 547.635 202.319C546.986 202.968 544.867 203.856 545.688 204.266C548.753 205.799 557.372 202.133 557.372 198.424C557.372 193.897 547.468 190.802 544.39 193.881C539.907 198.363 551.265 209.267 556.073 206.863C556.506 206.646 556.628 206.039 556.722 205.564C557.26 202.878 558.052 191.961 555.1 200.047Z" fill="none" opacity="1" stroke="#00b553" stroke-linecap="round" stroke-linejoin="round" stroke-opacity="0.8" stroke-width="4.52723"/>
<path d="M530.109 186.74C530.109 192.392 541.242 194.011 545.039 195.179" fill="none" opacity="1" stroke="#00b553" stroke-linecap="round" stroke-linejoin="round" stroke-opacity="0.8" stroke-width="4.52723"/>
<path d="M13.4126 286.99C11.9939 287.716 11.0408 289.547 11.0408 291.141C11.0408 295.431 10.8591 300.343 13.4126 303.79C14.5786 305.364 17.3169 302.9 18.9468 301.814C23.7606 298.605 23.3835 281.891 13.4126 286.99Z" fill="none" opacity="1" stroke="#00b553" stroke-linecap="round" stroke-linejoin="round" stroke-opacity="0.8" stroke-width="4.52723"/>
<path d="M23.2951 288.769C26.1993 289.737 30.733 283.38 31.9916 280.863" fill="none" opacity="1" stroke="#00b553" stroke-linecap="round" stroke-linejoin="round" stroke-opacity="0.8" stroke-width="4.52723"/>
<path d="M33.7705 277.305C32.5827 277.305 31.887 274.837 30.8057 275.329C26.4736 277.298 27.9563 284.635 31.9916 285.211C35.6479 285.734 39.2149 277.305 33.7705 277.305Z" fill="none" opacity="1" stroke="#00b553" stroke-linecap="round" stroke-linejoin="round" stroke-opacity="0.8" stroke-width="4.52723"/>
<path d="M544.487 453.125C546.04 449.716 537.095 455.632 534.56 458.39C534.132 458.856 535.703 459.15 536.331 459.073C537.701 458.905 538.453 457.229 539.867 456.728C541.381 456.191 542.566 455.206 544.205 455.409C544.404 455.433 547.779 455.981 547.859 455.861C548.099 455.499 547.4 455.101 547.058 454.834C545.011 453.233 540.142 451.598 537.578 452.734C531.621 455.376 540.582 461.693 544.487 453.125Z" fill="none" opacity="1" stroke="#00b553" stroke-linecap="round" stroke-linejoin="round" stroke-opacity="0.8" stroke-width="4.52723"/>
<path d="M547.798 452.606C549.892 453.999 547.14 449.629 546.936 448.326C546.392 444.85 545.505 441.505 545.438 437.937C545.375 434.628 545.015 427.789 547.076 424.689C549.386 421.214 550.236 429.136 550.165 429.709" fill="none" opacity="1" stroke="#00b553" stroke-linecap="round" stroke-linejoin="round" stroke-opacity="0.8" stroke-width="4.52723"/>
<path d="M557.578 422.277C559.142 421.723 547.531 423.41 544.848 423.95" fill="none" opacity="1" stroke="#00b553" stroke-linecap="round" stroke-linejoin="round" stroke-opacity="0.8" stroke-width="4.52723"/>
<path d="M551.88 430.849L552.793 430.962L551.597 433.133L546.973 433.025L546.973 433.025" fill="none" opacity="1" stroke="#00b553" stroke-linecap="round" stroke-linejoin="round" stroke-opacity="0.8" stroke-width="4.52723"/>
<path d="M590.219 237.083C582.42 240.995 573.187 239.626 565.447 242.369C564.99 242.531 566.373 242.704 566.761 242.995C567.376 243.454 567.947 243.986 568.419 244.591C569.831 246.401 570.66 248.606 570.883 250.925C571.095 253.14 572.636 269.982 574.449 270.846C575.068 271.141 575.112 269.626 575.588 269.132C576.856 267.815 578.782 267.301 580.495 266.956C584.263 266.197 589.371 264.343 593.281 264.826C593.622 264.868 592.634 265.055 592.311 265.17C591.148 265.582 590.281 266.113 589 265.688C587.266 265.113 587.207 263.094 586.711 261.695C585.037 256.97 580.379 254.804 575.856 255.714" fill="none" opacity="1" stroke="#00b553" stroke-linecap="round" stroke-linejoin="round" stroke-opacity="0.8" stroke-width="4.52723"/>
<path d="M590.337 239.881C590.679 239.614 591.625 238.734 591.363 239.08C587.784 243.797 583.821 248.219 580.363 253.025C576.859 257.895 576.283 259.217 574.495 262.967" fill="none" opacity="1" stroke="#00b553" stroke-linecap="round" stroke-linejoin="round" stroke-opacity="0.8" stroke-width="4.52723"/>
<path d="M247.145 16.1646C248.084 14.3008 251.072 9.00495 250.788 11.0725C250.344 14.3069 244.34 21.0697 243.106 24.1455C242.808 24.8894 241.492 26.0227 242.211 26.3772C242.219 26.3809 255.401 24.9436 257.131 24.894C259.224 24.8339 263.226 23.3762 263.226 23.3762C263.226 23.3762 261.314 23.7265 260.915 23.0589C260.469 22.3125 260.402 21.3957 260.077 20.5892C259.157 18.3029 256.059 8.98716 252.102 10.0756C249.746 10.7236 242.601 25.184 247.145 16.1646Z" fill="none" opacity="1" stroke="#00b553" stroke-linecap="round" stroke-linejoin="round" stroke-opacity="0.8" stroke-width="4.52723"/>
<path d="M266.07 15.5255C266.674 15.4123 268.471 15.0065 267.883 15.1858C261.973 16.9876 256.122 19.0339 250.096 20.396C247.976 20.8753 245.753 20.5846 243.582 20.6789" fill="none" opacity="1" stroke="#00b553" stroke-linecap="round" stroke-linejoin="round" stroke-opacity="0.8" stroke-width="4.52723"/>
<path d="M163.368 557.706C158.801 557.984 154.172 555.689 150.476 552.992C145.115 549.08 145.331 543.303 146.104 537.675C146.333 536.005 146.884 532.74 148.132 531.479C156.8 522.715 155.746 542.495 151.485 541.357C149.356 540.789 147.85 538.871 146.104 537.675" fill="none" opacity="1" stroke="#00b553" stroke-linecap="round" stroke-linejoin="round" stroke-opacity="0.8" stroke-width="4.52723"/>
<path d="M64.2901 477.583C71.9052 481.339 82.6616 481.822 77.6132 470.582C76.984 469.181 75.9524 467.067 74.7019 466.062C68.6038 461.162 69.2367 471.642 69.7849 471.862C74.3724 473.702 73.0611 460.608 70.3747 458.993C66.5126 456.67 63.4005 461.695 60.9149 463.58" fill="none" opacity="1" stroke="#00b553" stroke-linecap="round" stroke-linejoin="round" stroke-opacity="0.8" stroke-width="4.52723"/>
<path d="M30.4898 389.352C30.5427 388.967 30.4882 387.842 30.6484 388.197C34.0965 395.821 36.0869 404.163 40.4239 411.319C41.23 412.649 43.5054 411.742 45.0461 411.954" fill="none" opacity="1" stroke="#00b553" stroke-linecap="round" stroke-linejoin="round" stroke-opacity="0.8" stroke-width="4.52723"/>
<path d="M195.708 407.918C195.98 407.366 196.309 405.688 196.524 406.264C197.686 409.376 197.654 412.838 198.721 415.984C199.209 417.422 199.674 419.43 201.134 419.847C204.156 420.711 203.113 404.081 204.012 403.171C204.445 402.734 205.258 403.527 205.666 403.987C207.906 406.512 209.081 413.875 213.064 414.421C215.316 414.731 215.748 409.191 216.904 407.885C218.711 405.843 221.748 406.195 224.155 406.526" fill="none" opacity="1" stroke="#00b553" stroke-linecap="round" stroke-linejoin="round" stroke-opacity="0.8" stroke-width="4.52723"/>
<path d="M446.452 138.011C446.864 137.871 448.067 137.381 447.687 137.592C446.462 138.273 445.266 139.099 443.903 139.427C440.554 140.234 437.088 140.435 433.684 140.967C433.636 140.975 429.45 141.28 429.481 141.567C429.811 144.595 435.564 149.199 437.536 151.503C438.787 152.966 440.09 154.421 441.025 156.103C441.236 156.483 441.874 157.397 441.444 157.338C440.582 157.219 437.023 151.375 435.644 152.421C434.499 153.289 434.982 158.186 434.035 159.852C430.647 165.81 427.236 166.016 421.131 168.088" fill="none" opacity="1" stroke="#00b553" stroke-linecap="round" stroke-linejoin="round" stroke-opacity="0.8" stroke-width="4.52723"/>
<path d="M128.666 167.369C127.166 168.351 126.363 170.672 126.796 172.411C127.062 173.478 129.275 171.506 129.425 170.417C129.661 168.694 128.307 167.124 127.748 165.477C127.609 165.066 127.945 166.339 128.168 166.712C128.239 166.832 131.441 171.696 132.314 170.814C134.879 168.22 125.953 155.928 128.497 151.452C129.61 149.494 139.046 157.711 141.31 156.744C144.093 155.554 142.914 149.314 145.388 148.474C145.8 148.334 145.76 149.277 145.807 149.709C146.074 152.153 144.681 153.934 142.703 155.169C139.506 157.166 135.644 158.391 132.088 159.598C130.853 160.017 127.595 159.816 128.383 160.855C131.888 165.476 139.111 159.361 142.488 161.026C143.615 161.582 137.888 166.443 136.993 166.747C131.815 168.504 137.977 161.275 128.666 167.369Z" fill="none" opacity="1" stroke="#00b553" stroke-linecap="round" stroke-linejoin="round" stroke-opacity="0.8" stroke-width="4.52723"/>
<path d="M480.714 500.545C480.889 499.316 481.425 495.63 481.24 496.858C480.529 501.598 479.548 506.307 479.133 511.082C478.844 514.406 479.133 517.755 479.133 521.091" fill="none" opacity="1" stroke="#00b553" stroke-linecap="round" stroke-linejoin="round" stroke-opacity="0.8" stroke-width="4.52723"/>
<path d="M472.811 502.126C473.162 501.599 474.094 499.955 473.865 500.545C472.411 504.285 470.076 507.711 469.123 511.608C468.119 515.717 468.421 520.038 468.07 524.252" fill="none" opacity="1" stroke="#00b553" stroke-linecap="round" stroke-linejoin="round" stroke-opacity="0.8" stroke-width="4.52723"/>
<path d="M508.898 497.121C508.907 497.916 508.553 500.282 508.635 499.492C508.98 496.154 508.961 492.757 509.689 489.482C509.883 488.608 510.712 491.371 510.215 492.116C509.259 493.551 508.88 495.396 508.898 497.121Z" fill="none" opacity="1" stroke="#00b553" stroke-linecap="round" stroke-linejoin="round" stroke-opacity="0.8" stroke-width="4.52723"/>
<path d="M419.076 573.246C422.467 573.246 426.219 572.015 428.558 569.559C430.359 567.668 430.626 564.732 431.192 562.183C432.473 556.421 422.043 564.513 426.451 567.451C433.592 572.212 443.742 560.509 437.514 554.281" fill="none" opacity="1" stroke="#00b553" stroke-linecap="round" stroke-linejoin="round" stroke-opacity="0.8" stroke-width="4.52723"/>
</g>
</svg>
